<?xml version="1.0" encoding="iso-8859-1"?>
<!-- Generator: Adobe Illustrator 19.0.0, SVG Export Plug-In . SVG Version: 6.00 Build 0)  -->
<svg fill="#3b80b1" version="1.1" id="Capa_1" xmlns="http://www.w3.org/2000/svg" xmlns:xlink="http://www.w3.org/1999/xlink" x="0px" y="0px"
	 viewBox="0 0 512 512" style="enable-background:new 0 0 512 512;" xml:space="preserve">
<g>
	<g>
		<path d="M327.608,31.428c-2.545-6.263-6.263-11.87-11.071-16.668c-4.788-4.798-10.396-8.516-16.648-11.061
			C293.844,1.246,287.478,0,280.957,0h-0.073c-5.328,0-10.614,0.841-15.683,2.513c-5.182,1.693-10.032,4.206-14.394,7.467
			c-4.372-3.261-9.212-5.774-14.395-7.467C231.345,0.841,226.069,0,220.731,0h-0.073c-6.522,0-12.888,1.246-18.933,3.697
			c-6.252,2.545-11.86,6.263-16.648,11.061c-1.61,1.61-3.126,3.344-4.497,5.141c-1.267,1.661-1.807,3.707-1.527,5.764
			c0.28,2.067,1.35,3.895,3.001,5.151c1.371,1.049,3.001,1.599,4.715,1.599c2.451,0,4.715-1.122,6.2-3.074
			c0.945-1.236,1.994-2.441,3.116-3.573c6.573-6.563,15.308-10.178,24.613-10.188c9.295,0.01,18.029,3.625,24.603,10.188
			c1.465,1.475,3.428,2.285,5.505,2.285s4.04-0.81,5.504-2.285c6.574-6.563,15.308-10.178,24.604-10.188
			c9.305,0.01,18.039,3.625,24.613,10.188c6.564,6.574,10.178,15.308,10.189,24.614c-0.01,9.295-3.625,18.04-10.189,24.604
			l-54.72,54.72l-54.721-54.72c-2.971-2.981-5.349-6.398-7.073-10.179c-1.652-3.645-2.669-7.54-3.002-11.569
			c-0.156-1.963-1.049-3.78-2.492-5.11c-1.599-1.464-3.739-2.192-5.909-2.025c-4.279,0.353-7.478,4.123-7.125,8.402v0.011
			c0.966,11.87,6.148,23.055,14.592,31.488l60.225,60.225c1.444,1.443,3.458,2.275,5.505,2.275c2.056,0,4.06-0.832,5.504-2.275
			l50.681-50.671c0.032-0.041,0.063-0.073,0.105-0.103c0-0.011,0-0.011,0-0.011l9.44-9.44c4.808-4.798,8.526-10.406,11.071-16.668
			c2.45-6.055,3.687-12.431,3.687-18.953C331.295,43.848,330.059,37.472,327.608,31.428z"/>
	</g>
</g>
<g>
	<g>
		<path d="M209.264,382.18H185.9l0.008-17.245c19.074-16.665,31.145-41.152,31.145-68.406v-29.884
			c6.087-30.615,3.294-53.317-8.311-67.472c-7.314-8.923-16.381-12.325-22.846-13.596v-34.474c0-4.302-3.487-7.789-7.789-7.789
			c-2.955,0-5.983-0.016-9.066-0.032c-3.223-0.017-6.506-0.034-9.826-0.034c-37.576,0-79.765,2.377-104.825,30.765
			c-18.026,20.419-24.268,50.576-19.083,92.19v30.327c0,27.26,12.076,51.752,31.157,68.417v17.233H43.098
			c-21.475,0-38.945,17.471-38.945,38.945v83.086c0,4.302,3.487,7.789,7.789,7.789h228.478c4.302,0,7.789-3.487,7.789-7.789v-83.065
			c0-0.007,0.001-0.013,0.001-0.02C248.21,399.65,230.739,382.18,209.264,382.18z M66.07,184.322
			c20.769-23.527,58.97-25.496,93.146-25.496c3.293,0,6.547,0.017,9.743,0.034c0.455,0.002,0.908,0.004,1.36,0.007v33.778
			c0,2.15,0.851,4.207,2.418,5.68c1.567,1.473,3.631,2.229,5.782,2.098c0.706-0.027,10.979-0.153,18.176,8.627
			c5.317,6.485,7.969,16.438,7.91,29.34l-3.386-6.771c-1.716-3.432-5.678-5.105-9.332-3.937
			c-0.464,0.147-46.614,14.754-73.237,14.754c-25.534,0-48.639-13.845-48.86-13.979c-3.425-2.094-7.882-1.24-10.292,1.973
			l-10.281,13.708C48.59,217.799,54.231,197.731,66.07,184.322z M50.885,296.529v-28.653l17.052-22.736
			c9.605,4.776,29.084,12.874,50.713,12.874c23.071,0,57.419-9.37,71.577-13.545l11.247,22.494v29.566
			c0,41.501-33.777,75.265-75.295,75.265C84.663,371.794,50.885,338.03,50.885,296.529z M170.325,375.907l-0.005,9.892
			l-23.92,15.949l-12.431-6.21v-8.504C147.072,385.917,159.39,382.009,170.325,375.907z M118.39,387.035v8.046l-16.846,6.738
			l-19.502-15.594v-10.312C92.976,382.011,105.291,385.918,118.39,387.035z M232.632,421.123v75.299h-0.002h-36.335v-23.369
			c0-4.302-3.487-7.789-7.789-7.789s-7.789,3.487-7.789,7.789v23.369H71.658v-23.369c0-4.302-3.487-7.789-7.789-7.789
			s-7.789,3.487-7.789,7.789v23.369h-36.35v-75.297c0-12.884,10.482-23.367,23.367-23.367h28.425l23.837,19.061
			c0.071,0.057,0.15,0.094,0.222,0.148c0.217,0.161,0.439,0.309,0.67,0.446c0.143,0.086,0.285,0.169,0.433,0.244
			c0.221,0.112,0.447,0.209,0.677,0.3c0.156,0.062,0.31,0.129,0.469,0.18c0.256,0.082,0.517,0.141,0.78,0.197
			c0.133,0.028,0.263,0.069,0.397,0.09c0.402,0.064,0.809,0.101,1.221,0.101c0.271,0,0.544-0.018,0.817-0.048
			c0.048-0.004,0.095-0.014,0.143-0.02c0.214-0.026,0.428-0.061,0.642-0.105c0.088-0.018,0.175-0.042,0.263-0.063
			c0.166-0.042,0.333-0.087,0.499-0.14c0.11-0.036,0.218-0.073,0.326-0.114c0.067-0.024,0.135-0.043,0.201-0.069l22.711-9.083
			l17.511,8.747c0.006,0.003,0.012,0.005,0.017,0.008l0.125,0.063c0.109,0.055,0.221,0.093,0.331,0.142
			c0.152,0.067,0.303,0.139,0.459,0.197c0.19,0.07,0.381,0.123,0.573,0.177c0.098,0.027,0.194,0.063,0.293,0.086
			c0.277,0.068,0.556,0.117,0.835,0.153c0.021,0.002,0.042,0.008,0.062,0.01c0.307,0.037,0.615,0.058,0.922,0.058
			c0.366,0,0.729-0.027,1.089-0.078c0.156-0.022,0.309-0.065,0.464-0.096c0.201-0.042,0.403-0.076,0.6-0.133
			c0.156-0.045,0.307-0.109,0.461-0.163c0.197-0.07,0.394-0.137,0.584-0.222c0.134-0.061,0.263-0.135,0.395-0.204
			c0.207-0.107,0.412-0.217,0.608-0.344c0.041-0.025,0.085-0.043,0.125-0.07l29.183-19.458h28.797
			c12.88,0,23.36,10.476,23.367,23.354C232.632,421.114,232.632,421.119,232.632,421.123z"/>
	</g>
</g>
<g>
	<g>
		<path d="M507.845,244.482c-0.029-67.262-54.759-121.974-122.028-121.974c-67.286,0-122.027,54.742-122.027,122.028v186.976v72.699
			c0,4.302,3.487,7.789,7.789,7.789h228.478c4.302,0,7.789-3.487,7.789-7.789v-72.659c0-0.014,0.002-0.027,0.002-0.041V244.536
			C507.848,244.518,507.846,244.5,507.845,244.482z M492.268,431.512v64.91h-0.001h-36.341v-23.369c0-4.302-3.487-7.789-7.789-7.789
			s-7.789,3.487-7.789,7.789v23.369H331.291v-23.369c0-4.302-3.487-7.789-7.789-7.789s-7.789,3.487-7.789,7.789v23.369h-36.345
			v-64.91c0-12.884,10.483-23.367,23.367-23.367h23.894c3.837,29.253,28.908,51.914,59.19,51.914
			c30.282,0,55.353-22.661,59.19-51.914h23.894c12.875,0,23.352,10.469,23.366,23.341
			C492.269,431.494,492.268,431.503,492.268,431.512z M354.661,408.144c4.302,0,7.789-3.487,7.789-7.789v-16.033
			c7.459,1.986,15.291,3.05,23.367,3.05c8.078,0,15.912-1.065,23.372-3.052l-0.007,16.032v0.001c0,0.001,0,0.002,0,0.002
			c0,0.132,0.013,0.261,0.02,0.39c0.006,0.135,0.006,0.272,0.02,0.405c0.012,0.12,0.037,0.236,0.054,0.355
			c0.02,0.14,0.035,0.281,0.064,0.418c0.024,0.12,0.061,0.235,0.09,0.353c0.033,0.131,0.061,0.265,0.101,0.394
			c0.043,0.138,0.097,0.269,0.147,0.403c0.039,0.104,0.071,0.211,0.115,0.313c0.078,0.185,0.167,0.362,0.26,0.54
			c0.023,0.046,0.043,0.094,0.068,0.14c1.076,1.984,2.99,3.447,5.267,3.918c0.003,0,0.007,0.002,0.01,0.002
			c0.199,0.04,0.403,0.068,0.608,0.093c0.056,0.007,0.111,0.019,0.166,0.025c0.156,0.016,0.316,0.017,0.475,0.024
			c0.108,0.004,0.213,0.016,0.322,0.016c0.001,0,0.002,0,0.003,0h12.279c-3.697,20.627-21.759,36.336-43.433,36.336
			c-21.674,0-39.737-15.709-43.433-36.336L354.661,408.144L354.661,408.144z M310.523,296.529v-33.781h0.001h150.589v33.781
			c0,41.501-33.777,75.265-75.295,75.265C344.3,371.794,310.523,338.03,310.523,296.529z M492.269,400.376
			c-6.513-4.901-14.607-7.81-23.367-7.81h-30.895c-0.088-0.003-0.173-0.013-0.262-0.013s-0.173,0.01-0.262,0.013h-12.718
			l0.006-13.975c30.67-14.608,51.919-45.899,51.919-82.062v-41.57c0-4.302-3.487-7.789-7.789-7.789H455.92v-12.984
			c0-4.302-3.487-7.789-7.789-7.789s-7.789,3.487-7.789,7.789v12.984h-15.578v-12.984c0-4.302-3.487-7.789-7.789-7.789
			s-7.789,3.487-7.789,7.789v12.984h-15.578v-12.984c0-4.302-3.487-7.789-7.789-7.789s-7.789,3.487-7.789,7.789v12.984h-15.578
			v-12.984c0-4.302-3.487-7.789-7.789-7.789s-7.789,3.487-7.789,7.789v12.984h-15.578v-12.984c0-4.302-3.487-7.789-7.789-7.789
			s-7.789,3.487-7.789,7.789v12.984h-12.982c-4.302,0-7.789,3.487-7.789,7.789v41.57c0,36.167,21.253,67.46,51.927,82.066v13.971
			h-12.72c-0.088-0.003-0.173-0.013-0.262-0.013c-0.088,0-0.173,0.01-0.262,0.013h-30.895c-8.761,0-16.854,2.91-23.367,7.81v-155.84
			c0-58.697,47.752-106.45,106.448-106.45c58.697,0,106.451,47.753,106.451,106.45c0,0.013,0.002,0.026,0.002,0.04V400.376z"/>
	</g>
</g>
<g>
</g>
<g>
</g>
<g>
</g>
<g>
</g>
<g>
</g>
<g>
</g>
<g>
</g>
<g>
</g>
<g>
</g>
<g>
</g>
<g>
</g>
<g>
</g>
<g>
</g>
<g>
</g>
<g>
</g>
</svg>
