<svg fill="#3b80b1" id="Capa_1" enable-background="new 0 0 512 512" height="512" viewBox="0 0 512 512" width="512" xmlns="http://www.w3.org/2000/svg"><g><g><path d="m427.981 0h-294.23c-25.503 0-48.651 13.018-61.921 34.822-3.524 5.792-1.722 13.45 4.018 17.07l21 13.248-23.918 3.668c-3.341.512-6.271 2.302-8.253 5.041-1.966 2.717-2.744 6.029-2.192 9.322.119.711.25 1.423.391 2.125.156.786.324 1.583.502 2.37.019.091.039.183.062.278.011.049.021.097.032.146 4.909 21.374 23.76 36.301 45.84 36.301h33.791c-13.342 35.129-34.111 82.289-54.246 128.01-1.442 3.277-1.41 7.021.09 10.272s4.326 5.707 7.757 6.737l4.987 1.498-19.309 6.425c-3.35 1.114-6.085 3.608-7.504 6.841l-2.441 5.574c-2.318 5.294-.728 11.441 3.868 14.949l5.318 4.059-14.583 4.464c-3.521 1.079-6.375 3.641-7.829 7.029-3.811 8.882-7.194 16.871-10.343 24.424-1.595 3.823.213 8.214 4.035 9.809.943.394 1.922.58 2.884.58 2.937 0 5.725-1.736 6.925-4.616 3.005-7.204 6.224-14.811 9.829-23.223l18.129-5.551c4.501-1.379 7.813-5.114 8.644-9.748.83-4.634-.979-9.287-4.722-12.142l-7.626-5.819 1.204-2.748 25.754-8.569c5.196-1.729 8.634-6.57 8.552-12.046-.081-5.476-3.659-10.212-8.904-11.787l-9.847-2.957c20.88-47.412 42.275-96.096 55.4-131.466h46.997c4.143 0 7.5-3.358 7.5-7.5s-3.357-7.5-7.5-7.5h-96.811c-15.021 0-27.84-10.103-31.202-24.581-.018-.082-.036-.165-.057-.25-.009-.042-.018-.084-.027-.126-.089-.395-.176-.792-.259-1.191l27.971-4.29c5.209-.798 9.269-4.648 10.343-9.807s-1.112-10.309-5.568-13.12l-24.544-15.483c10.699-16.042 28.382-25.542 47.783-25.542h250.032c-4.33 3.332-8.314 7.178-11.866 11.496-13.563 16.489-18.999 37.856-14.914 58.628.179.905.369 1.809.564 2.628 1.356 5.965 2.916 11.978 4.77 18.385.315 1.086-.119 1.889-.405 2.271-.276.367-.898.982-1.971.982h-124.738c-4.143 0-7.5 3.358-7.5 7.5s3.357 7.5 7.5 7.5h124.737c5.544 0 10.633-2.541 13.962-6.972 3.349-4.456 4.377-10.09 2.822-15.453-1.771-6.123-3.26-11.859-4.568-17.613-.168-.706-.317-1.422-.457-2.13-3.215-16.347 1.079-33.186 11.782-46.198 10.75-13.07 26.5-20.668 43.354-20.994 15.774 1.912 31.834 10.814 41.222 23.743 9.234 12.72 12.663 28.15 9.656 43.441-.143.718-.292 1.437-.474 2.206-2.926 12.816-9.951 32.888-21.471 61.336l-46.646 4.866c-6.046.631-10.634 5.301-11.156 11.358s3.197 11.444 9.047 13.102l32.624 9.241c-9.358 21.84-19.763 45.459-29.837 68.329-10.533 23.911-21.419 48.622-31.141 71.371l-15.329 3.184c-5.353 1.112-9.228 5.338-9.871 10.768-.644 5.429 2.135 10.444 7.079 12.776l5.753 2.715c-5.363 13.055-9.768 24.255-13.437 34.145h-200.833c-5.544 0-10.633 2.542-13.962 6.972-3.349 4.456-4.377 10.089-2.822 15.452 1.771 6.125 3.261 11.861 4.568 17.612.165.694.312 1.396.45 2.098.47 3.111 2.843 5.616 5.957 6.233l15.01 2.975-15.652 5.119c-2.639.863-4.584 3.112-5.059 5.846-4.576 26.37-28.107 46.356-55.066 47.049-15.868-1.806-31.936-10.614-41.416-23.572-9.33-12.752-12.803-28.242-9.78-43.61.143-.719.292-1.438.475-2.207 2.542-11.146 8.146-27.653 17.129-50.463 1.518-3.854-.376-8.208-4.23-9.727-3.855-1.519-8.209.376-9.727 4.23-9.263 23.52-15.084 40.733-17.782 52.564-.211.891-.401 1.792-.581 2.701-3.841 19.533.56 39.197 12.391 55.369 11.694 15.986 32.551 27.174 52.076 29.748h294.23c33.673 0 63.36-23.7 70.59-56.353.896-4.044-1.656-8.049-5.701-8.944-4.039-.893-8.048 1.658-8.943 5.701-5.722 25.841-29.25 44.596-55.946 44.596h-250.05c.96-.737 1.902-1.5 2.827-2.287 11.64-9.908 19.817-23.174 23.348-37.734l38.776-12.681c3.242-1.06 5.36-4.175 5.155-7.58s-2.682-6.243-6.028-6.906l-38.313-7.595c-1.244-5.301-2.657-10.672-4.301-16.356-.315-1.086.119-1.888.406-2.27.275-.367.897-.982 1.97-.982h250.65c14.775 0 27.558 9.919 31.083 24.122.998 4.02 5.065 6.47 9.086 5.473 4.021-.998 6.471-5.066 5.473-9.086-5.189-20.907-23.958-35.509-45.642-35.509h-33.794c3.414-8.996 7.426-19.079 12.189-30.626 2.543-6.165-.189-13.224-6.222-16.069l-1.146-.541 9.291-1.93c4.001-.831 7.346-3.568 8.95-7.324 9.819-23.003 20.886-48.125 31.588-72.42 10.494-23.821 21.345-48.454 31.021-71.091 1.412-3.305 1.335-7.06-.214-10.302-1.547-3.242-4.417-5.662-7.873-6.641l-22.852-6.473 35.209-3.673c4.603-.48 8.544-3.442 10.284-7.729 12.162-29.94 19.607-51.213 22.747-64.973.211-.89.401-1.792.581-2.701 3.822-19.436-.523-39.023-12.235-55.155-11.687-16.097-32.61-27.382-52.233-29.961z"/><path d="m175.839 298.125c2.083 3.719 6.024 6.03 10.287 6.03h37.999l21.825 35.59c2.159 3.524 5.916 5.627 10.049 5.628h.002c4.132 0 7.89-2.104 10.05-5.626l21.826-35.592h37.998c4.263 0 8.204-2.311 10.287-6.03 2.082-3.72 1.992-8.288-.236-11.923l-18.521-30.202 18.521-30.203c2.228-3.634 2.317-8.202.235-11.922-2.083-3.719-6.024-6.03-10.287-6.03h-37.999l-21.825-35.59c-2.159-3.524-5.916-5.627-10.049-5.628-.001 0-.001 0-.002 0-4.132 0-7.89 2.104-10.05 5.626l-21.826 35.592h-37.998c-4.263 0-8.204 2.311-10.287 6.03-2.082 3.72-1.992 8.288.236 11.923l18.522 30.202-18.521 30.203c-2.228 3.634-2.318 8.202-.236 11.922zm80.161 29.316-14.28-23.287h28.56zm-23.478-38.287-20.33-33.154 20.331-33.154h46.956l20.33 33.154-20.331 33.154zm87.618 0h-23.066l11.533-18.807zm0-66.308-11.533 18.807-11.533-18.807zm-64.14-38.287 14.28 23.287h-28.56zm-64.139 38.287h23.066l-11.533 18.807zm11.533 47.501 11.533 18.807h-23.066z"/><path d="m270.266 247.171h-28.531c-4.143 0-7.5 3.358-7.5 7.5s3.357 7.5 7.5 7.5h6.766v2.261c0 4.142 3.357 7.5 7.5 7.5s7.5-3.358 7.5-7.5v-2.261h6.766c4.143 0 7.5-3.358 7.5-7.5s-3.358-7.5-7.501-7.5z"/><path d="m149.246 42.022c-3.982-1.137-8.135 1.168-9.272 5.151s1.169 8.134 5.151 9.272l7.884 2.252c.688.197 1.382.291 2.064.291 3.264 0 6.267-2.147 7.208-5.441 1.138-3.983-1.169-8.134-5.151-9.272z"/><path d="m375.526 203.389h.004l9.296-.005c4.143-.002 7.498-3.362 7.496-7.504-.002-4.141-3.359-7.496-7.5-7.496-.001 0-.003 0-.004 0l-9.296.005c-4.143.002-7.498 3.362-7.496 7.504.002 4.141 3.359 7.496 7.5 7.496z"/><path d="m96.51 449.838c1.558 0 3.13-.484 4.475-1.486 3.322-2.475 4.009-7.173 1.534-10.495l-5.068-6.804c-2.475-3.322-7.174-4.009-10.495-1.534-3.322 2.475-4.009 7.173-1.534 10.495l5.068 6.804c1.472 1.976 3.731 3.02 6.02 3.02z"/><path d="m62.821 446.436c4.143 0 7.5-3.358 7.5-7.5s-3.357-7.5-7.5-7.5h-.104c-4.143 0-7.5 3.358-7.5 7.5s3.357 7.5 7.5 7.5z"/><path d="m375.439 248.757h.104.036c4.125 0 7.479-3.334 7.499-7.465.02-4.142-3.322-7.516-7.465-7.535h-.104c-.012 0-.023 0-.036 0-4.125 0-7.479 3.334-7.499 7.465-.019 4.142 3.322 7.516 7.465 7.535z"/><path d="m178.755 34.413c-.012 0-.023 0-.036 0-4.125 0-7.479 3.334-7.499 7.465-.02 4.142 3.322 7.516 7.465 7.535h.104.036c4.125 0 7.479-3.334 7.499-7.465.02-4.142-3.322-7.516-7.465-7.535z"/><path d="m196.775 69.327c-.012 0-.023 0-.036 0-4.125 0-7.479 3.334-7.499 7.465-.02 4.142 3.322 7.516 7.465 7.535h.104.036c4.125 0 7.479-3.334 7.499-7.465.02-4.142-3.322-7.516-7.465-7.535z"/><path d="m237.847 456.737c-4.143 0-7.5 3.358-7.5 7.5s3.357 7.5 7.5 7.5h.104c4.143 0 7.5-3.358 7.5-7.5s-3.357-7.5-7.5-7.5z"/></g></g></svg>