<svg  height="512" viewBox="0 0 61 60" width="512" xmlns="http://www.w3.org/2000/svg"><g id="Page-1" fill="none" fill-rule="evenodd"><g id="020---Refresh-Graph" fill="#3b80b1" fill-rule="nonzero" transform="translate(-1 -1)"><path id="Shape" d="m31.038 60.968c6.2137358.012187 12.276321-1.9154508 17.342-5.514l1.013 1.013c.5246624.5288701 1.3020744.7179076 2.011.489.6974697-.2217587 1.2116626-.8159201 1.331-1.538l1.452-8.543c.1016444-.6339208-.1072155-1.2781008-.5614877-1.731779-.4542723-.4536782-1.0987251-.6616949-1.7325123-.559221l-8.538 1.45c-.7231679.1191241-1.3184685.6336862-1.541 1.332-.2286674.7089345-.0396607 1.4862194.489 2.011l.3.306c-8.4187564 5.2125305-19.2824393 4.1585464-26.5421893-2.5750976-7.25975012-6.733644-9.12648387-17.4875174-4.5608107-26.2739024.1763038-.3173977.166721-.7054196-.0250356-1.0137274-.1917565-.3083079-.5355567-.4884584-.898196-.4706527s-.68713746.2307699-.8477684.5563801c-5.11215678 9.8032838-2.8634572 21.8307072 5.4452923 29.1247598 8.3087494 7.2940526 20.5261139 7.9660412 29.5847077 1.6272402.2414872-.1698128.3956014-.4376508.4210594-.731767.0254579-.2941162-.0803423-.5844517-.2890594-.793233l-1.2-1.128 8.451-1.434h.07l-1.4 8.482-1.619-1.62c-.353191-.3532146-.9128536-.3916354-1.311-.09-10.4468735 7.9061991-24.9793846 7.5113295-34.9815148-.950499-10.00213028-8.4618286-12.79944903-22.7280407-6.7334852-34.340501.17628273-.3178435.16623176-.7063084-.02625161-1.0146106s-.53708882-.4878936-.90005658-.469065c-.36296776.0188285-.68714139.233112-.84669181.5596756-4.86348594 9.3019116-4.50403832 20.4707323.94749307 29.4406743 5.45153143 8.9699421 15.19993843 14.4325712 25.69650693 14.3993257z"/><path id="Shape" d="m52.217 9.783c-10.3343554-10.3937808-26.6793481-11.76405013-38.6-3.236l-1.01-1.014c-.5190482-.52446873-1.28757-.71509062-1.99155-.49397817-.70397992.22111246-1.22549275.81692023-1.35145 1.54397817-1.695 9.917-.538 3.166-1.451 8.542-.10155754.6337191.1071831 1.2776785.5612058 1.7313051.4540227.4536267 1.09816399.6618054 1.7317942.5596949l8.539-1.45c.7279138-.124462 1.3251846-.645384 1.5474323-1.3496249s.032181-1.4736346-.4924323-1.9933751l-.3-.3c.4753333-.296.9616667-.574 1.459-.834 8.5155829-4.41988615 18.9136298-2.80982319 25.6937041 3.9784857 6.7800743 6.788309 8.377515 17.1883025 3.9472959 25.6985143-.1763038.3173977-.166721.7054196.0250356 1.0137274.1917565.3083079.5355567.4884584.898196.4706527s.6871375-.2307699.8477684-.5563801c4.8420182-9.2861038 3.1016648-20.6398722-4.2995127-28.0492875-7.4011775-7.40941526-18.753003-9.16239765-28.0444873-4.3307125-.9270755.4843268-1.8222349 1.0274347-2.68 1.626-.2424567.169456-.3974492.4375601-.4233078.7322327-.0258586.2946725.0800703.5856734.2893078.7947673l1.2 1.127-8.527 1.462c.887-5.21 1.386-8.378 1.407-8.509l1.62 1.62c.3553306.35511665.9189686.3914942 1.317.085.208-.16.414-.311.641-.468 10.5468565-7.50831046 24.8659234-6.80698996 34.628575 1.69604134 9.7626516 8.50303126 12.4229009 22.59028096 6.433425 34.06795866-.1762827.3178435-.1662318.7063084.0262516 1.0146106s.5370888.4878936.9000566.469065c.3629677-.0188285.6871414-.233112.8466918-.5596756 6.0908999-11.6128639 3.9060189-25.8391193-5.389-35.089z"/><path id="Shape" d="m21 35.414 2.293 2.293c.3904999.3903819 1.0235001.3903819 1.414 0l7.293-7.293 4.293 4.293c.3903851.3897159 1.0226149.3897159 1.413 0l4.275-4.266.9.9c.4168429.4210435.9845179.6582647 1.577.659.1926483-.0001868.384501-.0247143.571-.073.7710056-.1956672 1.3788056-.788215 1.594-1.554l1.29-4.515c.2234372-.7828756.0049204-1.6253516-.5708649-2.2009293-.5757853-.5755776-1.4183402-.7937904-2.2011351-.5700707l-4.514 1.289c-.7637247.2183497-1.3549029.824508-1.5540772 1.5934564-.1991743.7689483.0233918 1.5858839.5850772 2.1475436l.91.91-3.568 3.559-4.294-4.293c-.3904999-.3903819-1.0235001-.3903819-1.414 0l-7.292 7.293-2.293-2.293c-.3904999-.3903819-1.0235001-.3903819-1.414 0l-3.293 3.293v-15.586c0-.5522847-.4477153-1-1-1s-1 .4477153-1 1v21c0 .5522847.4477153 1 1 1h29c.5522847 0 1-.4477153 1-1s-.4477153-1-1-1h-28v-1.586zm20.009-8.942c.0189778-.0844846.0839853-.1510399.168-.172l4.512-1.289c.0847998-.0246886.1763149-.001219.2387669.0612331.0624521.062452.0859217.1539671.0612331.2387669l-1.289 4.512c-.0238833.081143-.0883997.1439276-.1701624.1655947s-.1689047-.000928-.2298376-.0595947l-3.229-3.229c-.0609123-.0588808-.0847062-.1463809-.062-.228z"/></g></g></svg>